<svg width="155" height="29" viewBox="0 0 155 29" fill="none" xmlns="http://www.w3.org/2000/svg">
<path d="M5 0.5H24C26.4853 0.5 28.5 2.51472 28.5 5V24C28.5 26.4853 26.4853 28.5 24 28.5H5C2.51472 28.5 0.5 26.4853 0.5 24V5C0.5 2.51472 2.51472 0.5 5 0.5Z" fill="#EB7120"/>
<path d="M5 0.5H24C26.4853 0.5 28.5 2.51472 28.5 5V24C28.5 26.4853 26.4853 28.5 24 28.5H5C2.51472 28.5 0.5 26.4853 0.5 24V5C0.5 2.51472 2.51472 0.5 5 0.5Z" stroke="black"/>
<path d="M5 0.5H24C26.4853 0.5 28.5 2.51472 28.5 5V24C28.5 26.4853 26.4853 28.5 24 28.5H5C2.51472 28.5 0.5 26.4853 0.5 24V5C0.5 2.51472 2.51472 0.5 5 0.5Z" stroke="black" stroke-opacity="0.2"/>
<path d="M12.25 6.5L12.377 6.81055L15.3799 14.1289L18.3838 6.81055L18.5117 6.5H24.2617V22.0459H19.3975V15.501L17.0107 21.6133L16.8867 21.9316H13.873L13.75 21.6123L11.3633 15.458V22.0459H6.5V6.5H12.25Z" fill="white"/>
<path d="M12.25 6.5L12.377 6.81055L15.3799 14.1289L18.3838 6.81055L18.5117 6.5H24.2617V22.0459H19.3975V15.501L17.0107 21.6133L16.8867 21.9316H13.873L13.75 21.6123L11.3633 15.458V22.0459H6.5V6.5H12.25Z" stroke="black"/>
<path d="M12.25 6.5L12.377 6.81055L15.3799 14.1289L18.3838 6.81055L18.5117 6.5H24.2617V22.0459H19.3975V15.501L17.0107 21.6133L16.8867 21.9316H13.873L13.75 21.6123L11.3633 15.458V22.0459H6.5V6.5H12.25Z" stroke="black" stroke-opacity="0.2"/>
<path d="M147.26 6.5C148.488 6.5 149.578 6.7055 150.514 7.13477C151.448 7.56294 152.187 8.17668 152.708 8.97949H152.707C153.234 9.77941 153.493 10.7067 153.498 11.7422L153.501 12.2441H148.759L148.721 11.7842C148.693 11.4228 148.565 11.1856 148.366 11.0195L148.364 11.0176C148.181 10.8618 147.843 10.7383 147.26 10.7383C146.888 10.7383 146.62 10.7844 146.436 10.8545L146.431 10.8564C146.239 10.9279 146.141 11.0096 146.092 11.0762C146.032 11.1558 146 11.2445 145.998 11.3574V11.4424C146.002 11.502 146.016 11.5493 146.035 11.5898C146.067 11.6447 146.126 11.7137 146.234 11.79H146.233C146.349 11.8671 146.512 11.9474 146.732 12.0264C146.844 12.0663 146.968 12.1055 147.105 12.1426L147.559 12.249L147.563 12.25L148.755 12.5049C149.589 12.6815 150.319 12.9182 150.937 13.2197C151.552 13.5195 152.072 13.8806 152.485 14.3096H152.484C152.894 14.7303 153.2 15.2092 153.395 15.7451C153.593 16.274 153.692 16.8441 153.697 17.4502V17.457C153.692 18.4982 153.43 19.413 152.887 20.1738C152.415 20.8334 151.774 21.3443 150.98 21.7129L150.632 21.8613C149.682 22.2358 148.563 22.415 147.288 22.415C145.976 22.415 144.807 22.2207 143.794 21.8184H143.793C142.77 21.4101 141.957 20.7732 141.376 19.9062L141.374 19.9033C140.79 19.0198 140.515 17.9181 140.51 16.6328L140.508 16.1309H145.094C143.897 15.8323 142.906 15.3635 142.149 14.6982L142.147 14.6953C141.285 13.9272 140.874 12.8848 140.879 11.6289C140.874 10.6111 141.148 9.70026 141.712 8.91699V8.91602C142.272 8.13875 143.041 7.54349 143.998 7.12402H143.999C144.963 6.70373 146.053 6.5 147.26 6.5ZM145.259 16.6045C145.279 16.9812 145.371 17.2647 145.512 17.4785C145.652 17.6929 145.852 17.8617 146.129 17.9824L146.359 18.0645C146.604 18.1363 146.893 18.1758 147.231 18.1758C147.615 18.1758 147.905 18.1284 148.117 18.0508C148.339 17.9694 148.469 17.8705 148.545 17.7754C148.622 17.6784 148.658 17.5752 148.662 17.4502C148.657 17.3482 148.625 17.2697 148.563 17.1973L148.554 17.1855C148.49 17.1067 148.348 16.9959 148.068 16.8789L148.062 16.877C147.787 16.7576 147.393 16.6375 146.868 16.5225V16.5215L145.422 16.21H145.421C145.358 16.1963 145.296 16.1796 145.234 16.165L145.259 16.6045Z" fill="#DE7423"/>
<path d="M147.26 6.5C148.488 6.5 149.578 6.7055 150.514 7.13477C151.448 7.56294 152.187 8.17668 152.708 8.97949H152.707C153.234 9.77941 153.493 10.7067 153.498 11.7422L153.501 12.2441H148.759L148.721 11.7842C148.693 11.4228 148.565 11.1856 148.366 11.0195L148.364 11.0176C148.181 10.8618 147.843 10.7383 147.26 10.7383C146.888 10.7383 146.62 10.7844 146.436 10.8545L146.431 10.8564C146.239 10.9279 146.141 11.0096 146.092 11.0762C146.032 11.1558 146 11.2445 145.998 11.3574V11.4424C146.002 11.502 146.016 11.5493 146.035 11.5898C146.067 11.6447 146.126 11.7137 146.234 11.79H146.233C146.349 11.8671 146.512 11.9474 146.732 12.0264C146.844 12.0663 146.968 12.1055 147.105 12.1426L147.559 12.249L147.563 12.25L148.755 12.5049C149.589 12.6815 150.319 12.9182 150.937 13.2197C151.552 13.5195 152.072 13.8806 152.485 14.3096H152.484C152.894 14.7303 153.2 15.2092 153.395 15.7451C153.593 16.274 153.692 16.8441 153.697 17.4502V17.457C153.692 18.4982 153.43 19.413 152.887 20.1738C152.415 20.8334 151.774 21.3443 150.98 21.7129L150.632 21.8613C149.682 22.2358 148.563 22.415 147.288 22.415C145.976 22.415 144.807 22.2207 143.794 21.8184H143.793C142.77 21.4101 141.957 20.7732 141.376 19.9062L141.374 19.9033C140.79 19.0198 140.515 17.9181 140.51 16.6328L140.508 16.1309H145.094C143.897 15.8323 142.906 15.3635 142.149 14.6982L142.147 14.6953C141.285 13.9272 140.874 12.8848 140.879 11.6289C140.874 10.6111 141.148 9.70026 141.712 8.91699V8.91602C142.272 8.13875 143.041 7.54349 143.998 7.12402H143.999C144.963 6.70373 146.053 6.5 147.26 6.5ZM145.259 16.6045C145.279 16.9812 145.371 17.2647 145.512 17.4785C145.652 17.6929 145.852 17.8617 146.129 17.9824L146.359 18.0645C146.604 18.1363 146.893 18.1758 147.231 18.1758C147.615 18.1758 147.905 18.1284 148.117 18.0508C148.339 17.9694 148.469 17.8705 148.545 17.7754C148.622 17.6784 148.658 17.5752 148.662 17.4502C148.657 17.3482 148.625 17.2697 148.563 17.1973L148.554 17.1855C148.49 17.1067 148.348 16.9959 148.068 16.8789L148.062 16.877C147.787 16.7576 147.393 16.6375 146.868 16.5225V16.5215L145.422 16.21H145.421C145.358 16.1963 145.296 16.1796 145.234 16.165L145.259 16.6045Z" stroke="black"/>
<path d="M147.26 6.5C148.488 6.5 149.578 6.7055 150.514 7.13477C151.448 7.56294 152.187 8.17668 152.708 8.97949H152.707C153.234 9.77941 153.493 10.7067 153.498 11.7422L153.501 12.2441H148.759L148.721 11.7842C148.693 11.4228 148.565 11.1856 148.366 11.0195L148.364 11.0176C148.181 10.8618 147.843 10.7383 147.26 10.7383C146.888 10.7383 146.62 10.7844 146.436 10.8545L146.431 10.8564C146.239 10.9279 146.141 11.0096 146.092 11.0762C146.032 11.1558 146 11.2445 145.998 11.3574V11.4424C146.002 11.502 146.016 11.5493 146.035 11.5898C146.067 11.6447 146.126 11.7137 146.234 11.79H146.233C146.349 11.8671 146.512 11.9474 146.732 12.0264C146.844 12.0663 146.968 12.1055 147.105 12.1426L147.559 12.249L147.563 12.25L148.755 12.5049C149.589 12.6815 150.319 12.9182 150.937 13.2197C151.552 13.5195 152.072 13.8806 152.485 14.3096H152.484C152.894 14.7303 153.2 15.2092 153.395 15.7451C153.593 16.274 153.692 16.8441 153.697 17.4502V17.457C153.692 18.4982 153.43 19.413 152.887 20.1738C152.415 20.8334 151.774 21.3443 150.98 21.7129L150.632 21.8613C149.682 22.2358 148.563 22.415 147.288 22.415C145.976 22.415 144.807 22.2207 143.794 21.8184H143.793C142.77 21.4101 141.957 20.7732 141.376 19.9062L141.374 19.9033C140.79 19.0198 140.515 17.9181 140.51 16.6328L140.508 16.1309H145.094C143.897 15.8323 142.906 15.3635 142.149 14.6982L142.147 14.6953C141.285 13.9272 140.874 12.8848 140.879 11.6289C140.874 10.6111 141.148 9.70026 141.712 8.91699V8.91602C142.272 8.13875 143.041 7.54349 143.998 7.12402H143.999C144.963 6.70373 146.053 6.5 147.26 6.5ZM145.259 16.6045C145.279 16.9812 145.371 17.2647 145.512 17.4785C145.652 17.6929 145.852 17.8617 146.129 17.9824L146.359 18.0645C146.604 18.1363 146.893 18.1758 147.231 18.1758C147.615 18.1758 147.905 18.1284 148.117 18.0508C148.339 17.9694 148.469 17.8705 148.545 17.7754C148.622 17.6784 148.658 17.5752 148.662 17.4502C148.657 17.3482 148.625 17.2697 148.563 17.1973L148.554 17.1855C148.49 17.1067 148.348 16.9959 148.068 16.8789L148.062 16.877C147.787 16.7576 147.393 16.6375 146.868 16.5225V16.5215L145.422 16.21H145.421C145.358 16.1963 145.296 16.1796 145.234 16.165L145.259 16.6045Z" stroke="black" stroke-opacity="0.2"/>
<path d="M132.478 6.5C133.869 6.50005 135.144 6.80358 136.292 7.41797L136.507 7.53613C137.565 8.14744 138.41 9.01775 139.042 10.1338L139.166 10.3613C139.764 11.5169 140.052 12.8938 140.052 14.4717C140.052 16.1544 139.725 17.6103 139.043 18.8154L139.042 18.8164C138.368 20.002 137.451 20.9115 136.294 21.5312L136.292 21.5322C135.143 22.1419 133.869 22.4433 132.478 22.4434C131.078 22.4434 129.797 22.1397 128.648 21.5244L128.646 21.5234C127.495 20.8989 126.58 19.9874 125.907 18.8027L125.906 18.7998C125.23 17.5953 124.904 16.1451 124.904 14.4717C124.904 12.7893 125.229 11.3355 125.906 10.1348L126.036 9.91406C126.652 8.90351 127.452 8.10782 128.435 7.53711L128.649 7.41797C129.798 6.80305 131.078 6.5 132.478 6.5ZM132.478 10.9375C131.907 10.9375 131.459 11.0726 131.108 11.3164L131.107 11.3174C130.76 11.5575 130.477 11.9226 130.274 12.4473C130.075 12.9704 129.967 13.6406 129.967 14.4717C129.967 15.3016 130.075 15.9736 130.274 16.502C130.477 17.0217 130.76 17.3888 131.11 17.6348C131.461 17.8731 131.908 18.0059 132.478 18.0059C133.051 18.0058 133.496 17.8716 133.842 17.6328C134.195 17.3868 134.476 17.0199 134.674 16.502L134.675 16.5C134.878 15.9725 134.989 15.3014 134.989 14.4717C134.989 13.6416 134.879 12.9732 134.676 12.4512L134.674 12.4463C134.476 11.9234 134.194 11.5595 133.844 11.3193L133.839 11.3154C133.494 11.0732 133.05 10.9376 132.478 10.9375Z" fill="#DE7423"/>
<path d="M132.478 6.5C133.869 6.50005 135.144 6.80358 136.292 7.41797L136.507 7.53613C137.565 8.14744 138.41 9.01775 139.042 10.1338L139.166 10.3613C139.764 11.5169 140.052 12.8938 140.052 14.4717C140.052 16.1544 139.725 17.6103 139.043 18.8154L139.042 18.8164C138.368 20.002 137.451 20.9115 136.294 21.5312L136.292 21.5322C135.143 22.1419 133.869 22.4433 132.478 22.4434C131.078 22.4434 129.797 22.1397 128.648 21.5244L128.646 21.5234C127.495 20.8989 126.58 19.9874 125.907 18.8027L125.906 18.7998C125.23 17.5953 124.904 16.1451 124.904 14.4717C124.904 12.7893 125.229 11.3355 125.906 10.1348L126.036 9.91406C126.652 8.90351 127.452 8.10782 128.435 7.53711L128.649 7.41797C129.798 6.80305 131.078 6.5 132.478 6.5ZM132.478 10.9375C131.907 10.9375 131.459 11.0726 131.108 11.3164L131.107 11.3174C130.76 11.5575 130.477 11.9226 130.274 12.4473C130.075 12.9704 129.967 13.6406 129.967 14.4717C129.967 15.3016 130.075 15.9736 130.274 16.502C130.477 17.0217 130.76 17.3888 131.11 17.6348C131.461 17.8731 131.908 18.0059 132.478 18.0059C133.051 18.0058 133.496 17.8716 133.842 17.6328C134.195 17.3868 134.476 17.0199 134.674 16.502L134.675 16.5C134.878 15.9725 134.989 15.3014 134.989 14.4717C134.989 13.6416 134.879 12.9732 134.676 12.4512L134.674 12.4463C134.476 11.9234 134.194 11.5595 133.844 11.3193L133.839 11.3154C133.494 11.0732 133.05 10.9376 132.478 10.9375Z" stroke="black"/>
<path d="M132.478 6.5C133.869 6.50005 135.144 6.80358 136.292 7.41797L136.507 7.53613C137.565 8.14744 138.41 9.01775 139.042 10.1338L139.166 10.3613C139.764 11.5169 140.052 12.8938 140.052 14.4717C140.052 16.1544 139.725 17.6103 139.043 18.8154L139.042 18.8164C138.368 20.002 137.451 20.9115 136.294 21.5312L136.292 21.5322C135.143 22.1419 133.869 22.4433 132.478 22.4434C131.078 22.4434 129.797 22.1397 128.648 21.5244L128.646 21.5234C127.495 20.8989 126.58 19.9874 125.907 18.8027L125.906 18.7998C125.23 17.5953 124.904 16.1451 124.904 14.4717C124.904 12.7893 125.229 11.3355 125.906 10.1348L126.036 9.91406C126.652 8.90351 127.452 8.10782 128.435 7.53711L128.649 7.41797C129.798 6.80305 131.078 6.5 132.478 6.5ZM132.478 10.9375C131.907 10.9375 131.459 11.0726 131.108 11.3164L131.107 11.3174C130.76 11.5575 130.477 11.9226 130.274 12.4473C130.075 12.9704 129.967 13.6406 129.967 14.4717C129.967 15.3016 130.075 15.9736 130.274 16.502C130.477 17.0217 130.76 17.3888 131.11 17.6348C131.461 17.8731 131.908 18.0059 132.478 18.0059C133.051 18.0058 133.496 17.8716 133.842 17.6328C134.195 17.3868 134.476 17.0199 134.674 16.502L134.675 16.5C134.878 15.9725 134.989 15.3014 134.989 14.4717C134.989 13.6416 134.879 12.9732 134.676 12.4512L134.674 12.4463C134.476 11.9234 134.194 11.5595 133.844 11.3193L133.839 11.3154C133.494 11.0732 133.05 10.9376 132.478 10.9375Z" stroke="black" stroke-opacity="0.2"/>
<path d="M116.95 10.3352V16.9671L116.956 17.1321C116.983 17.4982 117.09 17.7451 117.237 17.9134C117.399 18.0924 117.635 18.2044 118.013 18.2044C118.268 18.2043 118.46 18.1509 118.607 18.0657C118.762 17.9738 118.879 17.8482 118.964 17.678L118.966 17.6751C119.054 17.5018 119.108 17.2751 119.104 16.9778V10.3352H124.024V22.2444H119.302V21.2405C119.128 21.4168 118.936 21.5789 118.722 21.721L118.72 21.722C118.035 22.1714 117.233 22.386 116.336 22.386C115.495 22.386 114.734 22.192 114.072 21.7874L114.071 21.7864C113.423 21.3865 112.918 20.8341 112.561 20.1409L112.56 20.138C112.207 19.4434 112.035 18.6593 112.029 17.7981V10.3352H116.95Z" fill="white"/>
<path d="M116.95 10.3352V16.9671L116.956 17.1321C116.983 17.4982 117.09 17.7451 117.237 17.9134C117.399 18.0924 117.635 18.2044 118.013 18.2044C118.268 18.2043 118.46 18.1509 118.607 18.0657C118.762 17.9738 118.879 17.8482 118.964 17.678L118.966 17.6751C119.054 17.5018 119.108 17.2751 119.104 16.9778V10.3352H124.024V22.2444H119.302V21.2405C119.128 21.4168 118.936 21.5789 118.722 21.721L118.72 21.722C118.035 22.1714 117.233 22.386 116.336 22.386C115.495 22.386 114.734 22.192 114.072 21.7874L114.071 21.7864C113.423 21.3865 112.918 20.8341 112.561 20.1409L112.56 20.138C112.207 19.4434 112.035 18.6593 112.029 17.7981V10.3352H116.95Z" stroke="black"/>
<path d="M116.95 10.3352V16.9671L116.956 17.1321C116.983 17.4982 117.09 17.7451 117.237 17.9134C117.399 18.0924 117.635 18.2044 118.013 18.2044C118.268 18.2043 118.46 18.1509 118.607 18.0657C118.762 17.9738 118.879 17.8482 118.964 17.678L118.966 17.6751C119.054 17.5018 119.108 17.2751 119.104 16.9778V10.3352H124.024V22.2444H119.302V21.2405C119.128 21.4168 118.936 21.5789 118.722 21.721L118.72 21.722C118.035 22.1714 117.233 22.386 116.336 22.386C115.495 22.386 114.734 22.192 114.072 21.7874L114.071 21.7864C113.423 21.3865 112.918 20.8341 112.561 20.1409L112.56 20.138C112.207 19.4434 112.035 18.6593 112.029 17.7981V10.3352H116.95Z" stroke="black" stroke-opacity="0.2"/>
<path d="M106.787 10.1932C107.638 10.1932 108.404 10.3896 109.063 10.8016H109.062C109.714 11.2015 110.219 11.7537 110.571 12.4481H110.57C110.928 13.1436 111.099 13.9262 111.094 14.784V22.244H106.174V15.6033C106.178 15.1509 106.064 14.8621 105.892 14.6727L105.824 14.6053C105.666 14.4624 105.444 14.3749 105.112 14.3748C104.865 14.3748 104.673 14.4289 104.52 14.5194L104.517 14.5203C104.371 14.605 104.255 14.7278 104.168 14.9051L104.166 14.908C104.08 15.0799 104.024 15.3079 104.02 15.6082H104.021V22.244H99.0998V10.3348H103.821V11.3494C103.998 11.1716 104.193 11.0083 104.41 10.8651L104.411 10.8641C105.103 10.412 105.901 10.1932 106.787 10.1932Z" fill="white"/>
<path d="M106.787 10.1932C107.638 10.1932 108.404 10.3896 109.063 10.8016H109.062C109.714 11.2015 110.219 11.7537 110.571 12.4481H110.57C110.928 13.1436 111.099 13.9262 111.094 14.784V22.244H106.174V15.6033C106.178 15.1509 106.064 14.8621 105.892 14.6727L105.824 14.6053C105.666 14.4624 105.444 14.3749 105.112 14.3748C104.865 14.3748 104.673 14.4289 104.52 14.5194L104.517 14.5203C104.371 14.605 104.255 14.7278 104.168 14.9051L104.166 14.908C104.08 15.0799 104.024 15.3079 104.02 15.6082H104.021V22.244H99.0998V10.3348H103.821V11.3494C103.998 11.1716 104.193 11.0083 104.41 10.8651L104.411 10.8641C105.103 10.412 105.901 10.1932 106.787 10.1932Z" stroke="black"/>
<path d="M106.787 10.1932C107.638 10.1932 108.404 10.3896 109.063 10.8016H109.062C109.714 11.2015 110.219 11.7537 110.571 12.4481H110.57C110.928 13.1436 111.099 13.9262 111.094 14.784V22.244H106.174V15.6033C106.178 15.1509 106.064 14.8621 105.892 14.6727L105.824 14.6053C105.666 14.4624 105.444 14.3749 105.112 14.3748C104.865 14.3748 104.673 14.4289 104.52 14.5194L104.517 14.5203C104.371 14.605 104.255 14.7278 104.168 14.9051L104.166 14.908C104.08 15.0799 104.024 15.3079 104.02 15.6082H104.021V22.244H99.0998V10.3348H103.821V11.3494C103.998 11.1716 104.193 11.0083 104.41 10.8651L104.411 10.8641C105.103 10.412 105.901 10.1932 106.787 10.1932Z" stroke="black" stroke-opacity="0.2"/>
<path d="M92.5741 10.1932C93.4498 10.1932 94.2575 10.3296 94.9901 10.6102C95.7211 10.8902 96.3535 11.3001 96.8798 11.8416L97.0712 12.0487C97.5048 12.5433 97.8427 13.1226 98.0858 13.7801C98.3652 14.5356 98.4999 15.3746 98.4999 16.2899V17.6991H91.4306C91.4575 17.8364 91.4992 17.9601 91.5585 18.0711C91.66 18.2611 91.8033 18.4081 91.997 18.5184C92.1808 18.6229 92.4229 18.6873 92.744 18.6873C92.9671 18.6873 93.1586 18.6561 93.3222 18.6004L93.3251 18.5994C93.496 18.5425 93.6292 18.4646 93.7343 18.3719C93.8334 18.2799 93.9051 18.1738 93.9521 18.0477L94.0732 17.7215H98.5878L98.4931 18.3016C98.3567 19.1408 98.0314 19.8823 97.5126 20.5135L97.5116 20.5155C96.9929 21.1412 96.3126 21.6174 95.4892 21.952L95.4882 21.953C94.6635 22.2849 93.7166 22.4432 92.6591 22.4432C91.4308 22.4432 90.343 22.2082 89.414 21.7176L89.411 21.7166V21.7157C88.487 21.2196 87.7703 20.5053 87.2694 19.5819L87.2675 19.5789C86.7712 18.649 86.5341 17.5559 86.5341 16.3182C86.5341 15.1232 86.776 14.0544 87.2763 13.1268C87.7752 12.2016 88.4834 11.4762 89.3944 10.9608C90.3108 10.4424 91.3769 10.1932 92.5741 10.1932ZM92.6591 13.9491C92.4168 13.9491 92.2051 14.0003 92.0155 14.0985L92.0087 14.1024C91.8184 14.1976 91.6723 14.325 91.5614 14.4871C91.5505 14.5039 91.5421 14.5223 91.5321 14.5399H93.7607C93.7513 14.5237 93.7435 14.5065 93.7333 14.491L93.7265 14.4813V14.4803C93.6244 14.3181 93.487 14.1928 93.3056 14.1004L93.2958 14.0955C93.1216 14.002 92.9137 13.9491 92.6591 13.9491Z" fill="white"/>
<path d="M92.5741 10.1932C93.4498 10.1932 94.2575 10.3296 94.9901 10.6102C95.7211 10.8902 96.3535 11.3001 96.8798 11.8416L97.0712 12.0487C97.5048 12.5433 97.8427 13.1226 98.0858 13.7801C98.3652 14.5356 98.4999 15.3746 98.4999 16.2899V17.6991H91.4306C91.4575 17.8364 91.4992 17.9601 91.5585 18.0711C91.66 18.2611 91.8033 18.4081 91.997 18.5184C92.1808 18.6229 92.4229 18.6873 92.744 18.6873C92.9671 18.6873 93.1586 18.6561 93.3222 18.6004L93.3251 18.5994C93.496 18.5425 93.6292 18.4646 93.7343 18.3719C93.8334 18.2799 93.9051 18.1738 93.9521 18.0477L94.0732 17.7215H98.5878L98.4931 18.3016C98.3567 19.1408 98.0314 19.8823 97.5126 20.5135L97.5116 20.5155C96.9929 21.1412 96.3126 21.6174 95.4892 21.952L95.4882 21.953C94.6635 22.2849 93.7166 22.4432 92.6591 22.4432C91.4308 22.4432 90.343 22.2082 89.414 21.7176L89.411 21.7166V21.7157C88.487 21.2196 87.7703 20.5053 87.2694 19.5819L87.2675 19.5789C86.7712 18.649 86.5341 17.5559 86.5341 16.3182C86.5341 15.1232 86.776 14.0544 87.2763 13.1268C87.7752 12.2016 88.4834 11.4762 89.3944 10.9608C90.3108 10.4424 91.3769 10.1932 92.5741 10.1932ZM92.6591 13.9491C92.4168 13.9491 92.2051 14.0003 92.0155 14.0985L92.0087 14.1024C91.8184 14.1976 91.6723 14.325 91.5614 14.4871C91.5505 14.5039 91.5421 14.5223 91.5321 14.5399H93.7607C93.7513 14.5237 93.7435 14.5065 93.7333 14.491L93.7265 14.4813V14.4803C93.6244 14.3181 93.487 14.1928 93.3056 14.1004L93.2958 14.0955C93.1216 14.002 92.9137 13.9491 92.6591 13.9491Z" stroke="black"/>
<path d="M92.5741 10.1932C93.4498 10.1932 94.2575 10.3296 94.9901 10.6102C95.7211 10.8902 96.3535 11.3001 96.8798 11.8416L97.0712 12.0487C97.5048 12.5433 97.8427 13.1226 98.0858 13.7801C98.3652 14.5356 98.4999 15.3746 98.4999 16.2899V17.6991H91.4306C91.4575 17.8364 91.4992 17.9601 91.5585 18.0711C91.66 18.2611 91.8033 18.4081 91.997 18.5184C92.1808 18.6229 92.4229 18.6873 92.744 18.6873C92.9671 18.6873 93.1586 18.6561 93.3222 18.6004L93.3251 18.5994C93.496 18.5425 93.6292 18.4646 93.7343 18.3719C93.8334 18.2799 93.9051 18.1738 93.9521 18.0477L94.0732 17.7215H98.5878L98.4931 18.3016C98.3567 19.1408 98.0314 19.8823 97.5126 20.5135L97.5116 20.5155C96.9929 21.1412 96.3126 21.6174 95.4892 21.952L95.4882 21.953C94.6635 22.2849 93.7166 22.4432 92.6591 22.4432C91.4308 22.4432 90.343 22.2082 89.414 21.7176L89.411 21.7166V21.7157C88.487 21.2196 87.7703 20.5053 87.2694 19.5819L87.2675 19.5789C86.7712 18.649 86.5341 17.5559 86.5341 16.3182C86.5341 15.1232 86.776 14.0544 87.2763 13.1268C87.7752 12.2016 88.4834 11.4762 89.3944 10.9608C90.3108 10.4424 91.3769 10.1932 92.5741 10.1932ZM92.6591 13.9491C92.4168 13.9491 92.2051 14.0003 92.0155 14.0985L92.0087 14.1024C91.8184 14.1976 91.6723 14.325 91.5614 14.4871C91.5505 14.5039 91.5421 14.5223 91.5321 14.5399H93.7607C93.7513 14.5237 93.7435 14.5065 93.7333 14.491L93.7265 14.4813V14.4803C93.6244 14.3181 93.487 14.1928 93.3056 14.1004L93.2958 14.0955C93.1216 14.002 92.9137 13.9491 92.6591 13.9491Z" stroke="black" stroke-opacity="0.2"/>
<path d="M73.9922 6.69885L74.1191 7.0094L77.1221 14.3278L80.126 7.0094L80.2539 6.69885H86.0039V22.2448H81.1396V15.6998L78.7529 21.8121L78.6289 22.1305H75.6152L75.4922 21.8112L73.1055 15.6569V22.2448H68.2422V6.69885H73.9922Z" fill="white"/>
<path d="M73.9922 6.69885L74.1191 7.0094L77.1221 14.3278L80.126 7.0094L80.2539 6.69885H86.0039V22.2448H81.1396V15.6998L78.7529 21.8121L78.6289 22.1305H75.6152L75.4922 21.8112L73.1055 15.6569V22.2448H68.2422V6.69885H73.9922Z" stroke="black"/>
<path d="M73.9922 6.69885L74.1191 7.0094L77.1221 14.3278L80.126 7.0094L80.2539 6.69885H86.0039V22.2448H81.1396V15.6998L78.7529 21.8121L78.6289 22.1305H75.6152L75.4922 21.8112L73.1055 15.6569V22.2448H68.2422V6.69885H73.9922Z" stroke="black" stroke-opacity="0.2"/>
<path d="M60.2962 10.3352L60.3871 10.722L61.7211 16.4485L63.0785 10.72L63.1693 10.3352H68.3802L68.1576 10.9944L64.181 22.8128L64.18 22.8118C63.9641 23.4642 63.6493 24.054 63.2347 24.5784C62.8064 25.1314 62.2475 25.5618 61.5707 25.8714C60.8756 26.1892 60.0366 26.3352 59.0755 26.3352C58.6016 26.3352 58.1464 26.2967 57.7103 26.221V26.222L57.7074 26.221H57.7045V26.22C57.2738 26.1496 56.8835 26.051 56.5384 25.9182L56.1039 25.7513L56.2396 25.305L57.0921 22.5208L57.2445 22.0227L57.7367 22.1966C58.0336 22.3014 58.2917 22.3642 58.513 22.3919H58.5121C58.7282 22.4184 58.8717 22.3973 58.9642 22.3626L58.9681 22.3616C59.0262 22.3403 59.0652 22.3077 59.099 22.2288L59.1087 22.2054L55.3353 10.9944L55.1127 10.3352H60.2962Z" fill="white"/>
<path d="M60.2962 10.3352L60.3871 10.722L61.7211 16.4485L63.0785 10.72L63.1693 10.3352H68.3802L68.1576 10.9944L64.181 22.8128L64.18 22.8118C63.9641 23.4642 63.6493 24.054 63.2347 24.5784C62.8064 25.1314 62.2475 25.5618 61.5707 25.8714C60.8756 26.1892 60.0366 26.3352 59.0755 26.3352C58.6016 26.3352 58.1464 26.2967 57.7103 26.221V26.222L57.7074 26.221H57.7045V26.22C57.2738 26.1496 56.8835 26.051 56.5384 25.9182L56.1039 25.7513L56.2396 25.305L57.0921 22.5208L57.2445 22.0227L57.7367 22.1966C58.0336 22.3014 58.2917 22.3642 58.513 22.3919H58.5121C58.7282 22.4184 58.8717 22.3973 58.9642 22.3626L58.9681 22.3616C59.0262 22.3403 59.0652 22.3077 59.099 22.2288L59.1087 22.2054L55.3353 10.9944L55.1127 10.3352H60.2962Z" stroke="black"/>
<path d="M60.2962 10.3352L60.3871 10.722L61.7211 16.4485L63.0785 10.72L63.1693 10.3352H68.3802L68.1576 10.9944L64.181 22.8128L64.18 22.8118C63.9641 23.4642 63.6493 24.054 63.2347 24.5784C62.8064 25.1314 62.2475 25.5618 61.5707 25.8714C60.8756 26.1892 60.0366 26.3352 59.0755 26.3352C58.6016 26.3352 58.1464 26.2967 57.7103 26.221V26.222L57.7074 26.221H57.7045V26.22C57.2738 26.1496 56.8835 26.051 56.5384 25.9182L56.1039 25.7513L56.2396 25.305L57.0921 22.5208L57.2445 22.0227L57.7367 22.1966C58.0336 22.3014 58.2917 22.3642 58.513 22.3919H58.5121C58.7282 22.4184 58.8717 22.3973 58.9642 22.3626L58.9681 22.3616C59.0262 22.3403 59.0652 22.3077 59.099 22.2288L59.1087 22.2054L55.3353 10.9944L55.1127 10.3352H60.2962Z" stroke="black" stroke-opacity="0.2"/>
<path d="M43.25 6.69885L43.377 7.0094L46.3799 14.3278L49.3838 7.0094L49.5117 6.69885H55.2617V22.2448H50.3975V15.6998L48.0107 21.8121L47.8867 22.1305H44.873L44.75 21.8112L42.3633 15.6569V22.2448H37.5V6.69885H43.25Z" fill="white"/>
<path d="M43.25 6.69885L43.377 7.0094L46.3799 14.3278L49.3838 7.0094L49.5117 6.69885H55.2617V22.2448H50.3975V15.6998L48.0107 21.8121L47.8867 22.1305H44.873L44.75 21.8112L42.3633 15.6569V22.2448H37.5V6.69885H43.25Z" stroke="black"/>
<path d="M43.25 6.69885L43.377 7.0094L46.3799 14.3278L49.3838 7.0094L49.5117 6.69885H55.2617V22.2448H50.3975V15.6998L48.0107 21.8121L47.8867 22.1305H44.873L44.75 21.8112L42.3633 15.6569V22.2448H37.5V6.69885H43.25Z" stroke="black" stroke-opacity="0.2"/>
</svg>
